<?xml version="1.0" encoding="UTF-8"?>
<!DOCTYPE svg PUBLIC "-//W3C//DTD SVG 1.1//EN" "http://www.w3.org/Graphics/SVG/1.1/DTD/svg11.dtd">
<svg version="1.1" xmlns="http://www.w3.org/2000/svg" xmlns:xlink="http://www.w3.org/1999/xlink" x="0" y="0" width="120" height="200" viewBox="0, 0, 120, 200">
  <g id="Layer_1">
    <g>
      <path d="M-62,-19 L950,-19 L950,276 L-62,276 L-62,-19 z" fill="#375A7F" display="none"/>
      <path d="M-62,-19 L950,-19 L950,276 L-62,276 L-62,-19 z" fill-opacity="0" stroke="#000000" stroke-width="1" display="none"/>
    </g>
    <g id="front">
      <g id="seam_allowance_-_front">
        <path d="M152.715,5.827 L203.855,-3.999 L203.855,-3.999 C203.855,-3.999 203.855,-3.999 203.855,0.916 C203.855,12.123 212.977,21.21 224.225,21.21 C224.225,21.21 224.225,21.21 224.225,21.21 L224.225,21.21 L224.225,84.935 L224.225,84.935 L224.225,97.112 L224.225,97.112 L224.225,161.242 L224.225,161.242 L224.225,211.979 L224.225,211.979 L224.225,305.333 L224.225,305.333 L193.357,305.333 L193.357,305.333 C193.357,305.333 193.357,305.333 195.707,301.274 C199.781,294.244 209.966,278.951 209.966,262.715 C209.966,238.362 181.392,216.87 174.89,211.979 C168.388,207.088 154.895,205.33 150.222,211.979 C142.184,223.413 142.184,223.413 142.184,223.413 L142.184,223.413 C142.184,223.413 142.184,223.413 146.348,210.716 C150.906,196.819 154.341,187.021 156.606,179.292 C158.737,172.023 159.816,166.714 159.718,161.445 C159.625,156.185 158.354,150.982 155.966,143.915 C153.424,136.39 149.644,126.896 144.584,113.404 C143.162,109.601 143.162,109.601 143.162,109.601 L143.162,109.601 L159.714,103.44 L159.714,103.44 L142.099,104.828 L142.099,104.828 C142.099,104.828 142.099,104.828 141.777,100.781 C141.125,92.546 140.824,88.426 141.097,84.846 C141.378,81.177 142.237,78.051 144.026,71.813 C145.146,67.912 145.146,67.912 145.146,67.912 L145.146,67.912 C145.146,67.912 145.146,67.912 149.061,69.028 C149.815,69.243 150.532,69.308 151.204,69.15 C151.852,69 152.438,68.643 152.98,68.127 C153.77,67.376 154.451,66.337 155.058,65.043 C155.795,63.472 156.398,61.556 156.863,59.303 C158.961,49.209 158.333,32.941 153.55,9.854 C152.715,5.827 152.715,5.827 152.715,5.827 L152.715,5.827 L203.855,-3.999" fill="#7D7D7D" display="none"/>
        <path d="M152.715,5.827 L203.855,-3.999 L203.855,-3.999 C203.855,-3.999 203.855,-3.999 203.855,0.916 C203.855,12.123 212.977,21.21 224.225,21.21 C224.225,21.21 224.225,21.21 224.225,21.21 L224.225,21.21 L224.225,84.935 L224.225,84.935 L224.225,97.112 L224.225,97.112 L224.225,161.242 L224.225,161.242 L224.225,211.979 L224.225,211.979 L224.225,305.333 L224.225,305.333 L193.357,305.333 L193.357,305.333 C193.357,305.333 193.357,305.333 195.707,301.274 C199.781,294.244 209.966,278.951 209.966,262.715 C209.966,238.362 181.392,216.87 174.89,211.979 C168.388,207.088 154.895,205.33 150.222,211.979 C142.184,223.413 142.184,223.413 142.184,223.413 L142.184,223.413 C142.184,223.413 142.184,223.413 146.348,210.716 C150.906,196.819 154.341,187.021 156.606,179.292 C158.737,172.023 159.816,166.714 159.718,161.445 C159.625,156.185 158.354,150.982 155.966,143.915 C153.424,136.39 149.644,126.896 144.584,113.404 C143.162,109.601 143.162,109.601 143.162,109.601 L143.162,109.601 L159.714,103.44 L159.714,103.44 L142.099,104.828 L142.099,104.828 C142.099,104.828 142.099,104.828 141.777,100.781 C141.125,92.546 140.824,88.426 141.097,84.846 C141.378,81.177 142.237,78.051 144.026,71.813 C145.146,67.912 145.146,67.912 145.146,67.912 L145.146,67.912 C145.146,67.912 145.146,67.912 149.061,69.028 C149.815,69.243 150.532,69.308 151.204,69.15 C151.852,69 152.438,68.643 152.98,68.127 C153.77,67.376 154.451,66.337 155.058,65.043 C155.795,63.472 156.398,61.556 156.863,59.303 C158.961,49.209 158.333,32.941 153.55,9.854 C152.715,5.827 152.715,5.827 152.715,5.827 L152.715,5.827 L203.855,-3.999" fill-opacity="0" stroke="#000000" stroke-width="1" display="none"/>
      </g>
      <path d="M199.781,0.916 L199.781,0.916 C199.781,14.367 210.724,25.269 224.225,25.269 L224.225,84.935 L224.225,97.112 L224.225,161.242 L224.225,211.979 L224.225,301.274 L195.707,301.274 L195.707,301.274 C199.781,294.244 209.966,278.951 209.966,262.715 C209.966,238.362 181.392,216.87 174.89,211.979 C168.388,207.088 154.895,205.33 150.222,211.979 L150.222,211.979 C154.797,198.028 158.244,188.185 160.517,180.429 C162.79,172.672 163.894,166.998 163.792,161.372 C163.69,155.747 162.383,150.174 159.828,142.62 C157.274,135.063 153.477,125.528 148.401,111.984 L188.374,97.112 L145.839,100.465 L145.839,100.465 C145.211,92.55 144.897,88.592 145.158,85.154 C145.423,81.712 146.262,78.786 147.941,72.929 L147.941,72.929 C149.411,73.347 150.817,73.408 152.133,73.103 C153.449,72.795 154.679,72.121 155.787,71.066 C156.899,70.015 157.897,68.582 158.749,66.759 C159.6,64.941 160.313,62.733 160.855,60.123 C163.018,49.696 162.48,32.884 157.539,9.034 L199.781,0.916" fill="#FFFFFF" id="seam_line_-_front" display="none"/>
    </g>
    <g>
      <g>
        <path d="M54.341,0.808 L54.341,161.22" fill="#000000" display="none"/>
        <path d="M54.341,0.808 L54.341,161.22" fill-opacity="0" stroke="#000000" stroke-width="0.97" display="none"/>
      </g>
      <g>
        <path d="M54.341,161.22 L54.341,262.746" fill="#000000" display="none"/>
        <path d="M54.341,161.22 L54.341,262.746" fill-opacity="0" stroke="#000000" stroke-width="0.97" display="none"/>
      </g>
      <g>
        <path d="M54.341,0.808 L54.341,8.93" fill="#000000" display="none"/>
        <path d="M54.341,0.808 L54.341,8.93" fill-opacity="0" stroke="#000000" stroke-width="0.97" display="none"/>
      </g>
      <g>
        <path d="M54.341,262.746 L54.341,300.311" fill="#000000" display="none"/>
        <path d="M54.341,262.746 L54.341,300.311" fill-opacity="0" stroke="#000000" stroke-width="0.97" display="none"/>
      </g>
      <g>
        <path d="M54.341,300.311 L82.769,300.311" fill="#000000" display="none"/>
        <path d="M54.341,300.311 L82.769,300.311" fill-opacity="0" stroke="#000000" stroke-width="0.97" display="none"/>
      </g>
      <g>
        <path d="M54.341,262.746 L144.7,262.746" fill="#000000" display="none"/>
        <path d="M54.341,262.746 L144.7,262.746" fill-opacity="0" stroke="#6495ED" stroke-width="0.97" display="none"/>
      </g>
      <g>
        <path d="M144.7,262.746 L144.7,161.22" fill="#000000" display="none"/>
        <path d="M144.7,262.746 L144.7,161.22" fill-opacity="0" stroke="#000000" stroke-width="0.97" display="none"/>
      </g>
      <g>
        <path d="M54.341,161.22 L144.7,161.22" fill="#000000" display="none"/>
        <path d="M54.341,161.22 L144.7,161.22" fill-opacity="0" stroke="#000000" stroke-width="0.97" display="none"/>
      </g>
      <g>
        <path d="M144.7,262.746 L144.7,161.22" fill="#000000" display="none"/>
        <path d="M144.7,262.746 L144.7,161.22" fill-opacity="0" stroke="#6495ED" stroke-width="0.97" display="none"/>
      </g>
      <g>
        <path d="M54.341,161.22 L144.7,161.22" fill="#000000" display="none"/>
        <path d="M54.341,161.22 L144.7,161.22" fill-opacity="0" stroke="#6495ED" stroke-width="0.97" display="none"/>
      </g>
      <g>
        <path d="M144.7,262.746 L111.521,161.22" fill="#000000" display="none"/>
        <path d="M144.7,262.746 L111.521,161.22" fill-opacity="0" stroke="#6495ED" stroke-width="0.97" display="none"/>
      </g>
      <g>
        <path d="M54.341,262.746 L133.857,262.746" fill="#000000" display="none"/>
        <path d="M54.341,262.746 L133.857,262.746" fill-opacity="0" stroke="#000000" stroke-width="0.97" display="none"/>
      </g>
      <g>
        <path d="M133.857,262.746 L224.215,262.746" fill="#000000" display="none"/>
        <path d="M133.857,262.746 L224.215,262.746" fill-opacity="0" stroke="#6495ED" stroke-width="0.97" display="none"/>
      </g>
      <g>
        <path d="M224.215,262.746 L224.215,0.808" fill="#000000" display="none"/>
        <path d="M224.215,262.746 L224.215,0.808" fill-opacity="0" stroke="#000000" stroke-width="0.97" display="none"/>
      </g>
      <g>
        <path d="M54.341,0.808 L224.215,0.808" fill="#000000" display="none"/>
        <path d="M54.341,0.808 L224.215,0.808" fill-opacity="0" stroke="#000000" stroke-width="0.97" display="none"/>
      </g>
      <g>
        <path d="M224.215,262.746 L224.215,0.808" fill="#000000" display="none"/>
        <path d="M224.215,262.746 L224.215,0.808" fill-opacity="0" stroke="#6495ED" stroke-width="0.97" display="none"/>
      </g>
      <g>
        <path d="M224.215,262.746 L224.215,161.22" fill="#000000" display="none"/>
        <path d="M224.215,262.746 L224.215,161.22" fill-opacity="0" stroke="#000000" stroke-width="0.97" display="none"/>
      </g>
      <g>
        <path d="M54.341,161.22 L224.215,161.22" fill="#000000" display="none"/>
        <path d="M54.341,161.22 L224.215,161.22" fill-opacity="0" stroke="#000000" stroke-width="0.97" display="none"/>
      </g>
      <g>
        <path d="M224.215,262.746 L210.002,262.746" fill="#000000" display="none"/>
        <path d="M224.215,262.746 L210.002,262.746" fill-opacity="0" stroke="#6495ED" stroke-width="0.97" display="none"/>
      </g>
      <g>
        <path d="M224.215,262.746 L224.215,301.326" fill="#000000" display="none"/>
        <path d="M224.215,262.746 L224.215,301.326" fill-opacity="0" stroke="#6495ED" stroke-width="0.97" display="none"/>
      </g>
      <g>
        <path d="M224.215,301.326 L195.788,301.326" fill="#000000" display="none"/>
        <path d="M224.215,301.326 L195.788,301.326" fill-opacity="0" stroke="#000000" stroke-width="0.97" display="none"/>
      </g>
      <g>
        <path d="M224.215,161.22 L167.036,161.22" fill="#000000" display="none"/>
        <path d="M224.215,161.22 L167.036,161.22" fill-opacity="0" stroke="#6495ED" stroke-width="0.97" display="none"/>
      </g>
      <g>
        <path d="M133.857,262.746 L167.036,161.22" fill="#000000" display="none"/>
        <path d="M133.857,262.746 L167.036,161.22" fill-opacity="0" stroke="#6495ED" stroke-width="0.97" display="none"/>
      </g>
      <g>
        <path d="M133.857,262.746 L150.446,211.983" fill="#000000" display="none"/>
        <path d="M133.857,262.746 L150.446,211.983" fill-opacity="0" stroke="#6495ED" stroke-width="0.97" display="none"/>
      </g>
      <g>
        <path d="M224.215,0.808 L224.215,211.983" fill="#000000" display="none"/>
        <path d="M224.215,0.808 L224.215,211.983" fill-opacity="0" stroke="#000000" stroke-width="0.97" display="none"/>
      </g>
      <g>
        <path d="M150.446,211.983 L224.215,211.983" fill="#000000" display="none"/>
        <path d="M150.446,211.983 L224.215,211.983" fill-opacity="0" stroke="#000000" stroke-width="0.97" display="none"/>
      </g>
      <g>
        <path d="M150.446,211.983 L224.215,211.983" fill="#000000" display="none"/>
        <path d="M150.446,211.983 L224.215,211.983" fill-opacity="0" stroke="#6495ED" stroke-width="0.97" display="none"/>
      </g>
      <g>
        <path d="M150.446,211.983 L175.036,211.983" fill="#000000" display="none"/>
        <path d="M150.446,211.983 L175.036,211.983" fill-opacity="0" stroke="#6495ED" stroke-width="0.97" display="none"/>
      </g>
      <g>
        <path d="M54.341,0.808 L224.215,0.808" fill="#000000" display="none"/>
        <path d="M54.341,0.808 L224.215,0.808" fill-opacity="0" stroke="#6495ED" stroke-width="0.97" display="none"/>
      </g>
      <g>
        <path d="M143.075,0.808 L143.075,161.22" fill="#000000" display="none"/>
        <path d="M143.075,0.808 L143.075,161.22" fill-opacity="0" stroke="#000000" stroke-width="0.97" display="none"/>
      </g>
      <g>
        <path d="M224.215,161.22 L143.075,161.22" fill="#000000" display="none"/>
        <path d="M224.215,161.22 L143.075,161.22" fill-opacity="0" stroke="#000000" stroke-width="0.97" display="none"/>
      </g>
      <g>
        <path d="M143.075,0.808 L143.075,97.055" fill="#000000" display="none"/>
        <path d="M143.075,0.808 L143.075,97.055" fill-opacity="0" stroke="#000000" stroke-width="0.97" display="none"/>
      </g>
      <g>
        <path d="M224.215,97.055 L143.075,97.055" fill="#000000" display="none"/>
        <path d="M224.215,97.055 L143.075,97.055" fill-opacity="0" stroke="#000000" stroke-width="0.97" display="none"/>
      </g>
      <g>
        <path d="M167.036,161.22 L143.075,97.055" fill="#000000" display="none"/>
        <path d="M167.036,161.22 L143.075,97.055" fill-opacity="0" stroke="#6495ED" stroke-width="0.97" display="none"/>
      </g>
      <g>
        <path d="M224.215,97.055 L143.075,97.055" fill="#000000" display="none"/>
        <path d="M224.215,97.055 L143.075,97.055" fill-opacity="0" stroke="#6495ED" stroke-width="0.97" display="none"/>
      </g>
      <g>
        <path d="M143.075,0.808 L143.075,161.22" fill="#000000" display="none"/>
        <path d="M143.075,0.808 L143.075,161.22" fill-opacity="0" stroke="#6495ED" stroke-width="0.97" display="none"/>
      </g>
      <g>
        <path d="M123.298,0.808 L123.298,161.22" fill="#000000" display="none"/>
        <path d="M123.298,0.808 L123.298,161.22" fill-opacity="0" stroke="#000000" stroke-width="0.97" display="none"/>
      </g>
      <g>
        <path d="M54.341,161.22 L123.298,161.22" fill="#000000" display="none"/>
        <path d="M54.341,161.22 L123.298,161.22" fill-opacity="0" stroke="#000000" stroke-width="0.97" display="none"/>
      </g>
      <g>
        <path d="M123.298,0.808 L123.298,161.22" fill="#000000" display="none"/>
        <path d="M123.298,0.808 L123.298,161.22" fill-opacity="0" stroke="#6495ED" stroke-width="0.97" display="none"/>
      </g>
      <g>
        <path d="M123.298,0.808 L123.298,84.872" fill="#000000" display="none"/>
        <path d="M123.298,0.808 L123.298,84.872" fill-opacity="0" stroke="#000000" stroke-width="0.97" display="none"/>
      </g>
      <g>
        <path d="M143.075,84.872 L123.298,84.872" fill="#000000" display="none"/>
        <path d="M143.075,84.872 L123.298,84.872" fill-opacity="0" stroke="#000000" stroke-width="0.97" display="none"/>
      </g>
      <g>
        <path d="M111.521,161.22 L123.298,84.872" fill="#000000" display="none"/>
        <path d="M111.521,161.22 L123.298,84.872" fill-opacity="0" stroke="#6495ED" stroke-width="0.97" display="none"/>
      </g>
      <g>
        <path d="M224.215,0.808 L224.215,84.872" fill="#000000" display="none"/>
        <path d="M224.215,0.808 L224.215,84.872" fill-opacity="0" stroke="#000000" stroke-width="0.97" display="none"/>
      </g>
      <g>
        <path d="M143.075,84.872 L224.215,84.872" fill="#000000" display="none"/>
        <path d="M143.075,84.872 L224.215,84.872" fill-opacity="0" stroke="#000000" stroke-width="0.97" display="none"/>
      </g>
      <g>
        <path d="M143.075,84.872 L224.215,84.872" fill="#000000" display="none"/>
        <path d="M143.075,84.872 L224.215,84.872" fill-opacity="0" stroke="#6495ED" stroke-width="0.97" display="none"/>
      </g>
      <g>
        <path d="M54.341,0.808 L54.341,84.872" fill="#000000" display="none"/>
        <path d="M54.341,0.808 L54.341,84.872" fill-opacity="0" stroke="#000000" stroke-width="0.97" display="none"/>
      </g>
      <g>
        <path d="M123.298,84.872 L54.341,84.872" fill="#000000" display="none"/>
        <path d="M123.298,84.872 L54.341,84.872" fill-opacity="0" stroke="#000000" stroke-width="0.97" display="none"/>
      </g>
      <g>
        <path d="M123.298,84.872 L54.341,84.872" fill="#000000" display="none"/>
        <path d="M123.298,84.872 L54.341,84.872" fill-opacity="0" stroke="#6495ED" stroke-width="0.97" display="none"/>
      </g>
      <path d="M199.849,0.808 C199.849,14.265 210.758,25.175 224.215,25.175" fill-opacity="0" stroke="#000000" stroke-width="0.97" display="none"/>
      <path d="M54.341,8.93 C67.798,8.93 78.708,5.294 78.708,0.808" fill-opacity="0" stroke="#000000" stroke-width="0.97" display="none"/>
      <g>
        <path d="M143.075,0.808 L143.075,8.93" fill="#000000" display="none"/>
        <path d="M143.075,0.808 L143.075,8.93" fill-opacity="0" stroke="#000000" stroke-width="0.97" display="none"/>
      </g>
      <g>
        <path d="M54.341,8.93 L143.075,8.93" fill="#000000" display="none"/>
        <path d="M54.341,8.93 L143.075,8.93" fill-opacity="0" stroke="#000000" stroke-width="0.97" display="none"/>
      </g>
      <g>
        <path d="M54.341,8.93 L143.075,8.93" fill="#000000" display="none"/>
        <path d="M54.341,8.93 L143.075,8.93" fill-opacity="0" stroke="#6495ED" stroke-width="0.97" display="none"/>
      </g>
      <g>
        <path d="M78.708,0.808 L120.816,8.93" fill="#000000" display="none"/>
        <path d="M78.708,0.808 L120.816,8.93" fill-opacity="0" stroke="#6495ED" stroke-width="0.97" display="none"/>
      </g>
      <g>
        <path d="M78.708,0.808 L120.816,8.93" fill="#000000" display="none"/>
        <path d="M78.708,0.808 L120.816,8.93" fill-opacity="0" stroke="#000000" stroke-width="0.97" display="none"/>
      </g>
      <g>
        <path d="M120.816,8.93 L90.435,166.439" fill="#000000" display="none"/>
        <path d="M120.816,8.93 L90.435,166.439" fill-opacity="0" stroke="#6495ED" stroke-width="0.97" display="none"/>
      </g>
      <g>
        <path d="M224.215,0.808 L224.215,8.93" fill="#000000" display="none"/>
        <path d="M224.215,0.808 L224.215,8.93" fill-opacity="0" stroke="#000000" stroke-width="0.97" display="none"/>
      </g>
      <g>
        <path d="M54.341,8.93 L224.215,8.93" fill="#000000" display="none"/>
        <path d="M54.341,8.93 L224.215,8.93" fill-opacity="0" stroke="#000000" stroke-width="0.97" display="none"/>
      </g>
      <path d="M199.849,0.808 L157.74,8.93" fill="#000000" display="none"/>
      <g>
        <path d="M123.298,84.872 L107.244,82.396" fill="#000000" display="none"/>
        <path d="M123.298,84.872 L107.244,82.396" fill-opacity="0" stroke="#6495ED" stroke-width="0.97" display="none"/>
      </g>
      <path d="M120.817,8.93 C111.05,59.559 107.245,82.395 123.298,84.872" fill-opacity="0" stroke="#000000" stroke-width="0.97" display="none"/>
      <path d="M123.298,84.872 C110.343,168.855 109.86,156.144 128.11,211.983" fill-opacity="0" stroke="#000000" stroke-width="0.97" display="none"/>
      <g>
        <path d="M148.173,72.861 L144.824,84.575" fill="#000000" display="none"/>
        <path d="M148.173,72.861 L144.824,84.575" fill-opacity="0" stroke="#6495ED" stroke-width="0.97" display="none"/>
      </g>
      <g>
        <path d="M144.824,84.575 L146.076,100.408" fill="#000000" display="none"/>
        <path d="M144.824,84.575 L146.076,100.408" fill-opacity="0" stroke="#6495ED" stroke-width="0.97" display="none"/>
      </g>
      <g>
        <path d="M157.74,8.93 L199.849,0.808" fill="#000000" display="none"/>
        <path d="M157.74,8.93 L199.849,0.808" fill-opacity="0" stroke="#000000" stroke-width="0.97" display="none"/>
      </g>
      <g>
        <path d="M54.341,0.808 L54.341,111.935" fill="#000000" display="none"/>
        <path d="M54.341,0.808 L54.341,111.935" fill-opacity="0" stroke="#000000" stroke-width="0.97" display="none"/>
      </g>
      <g>
        <path d="M148.632,111.935 L54.341,111.935" fill="#000000" display="none"/>
        <path d="M148.632,111.935 L54.341,111.935" fill-opacity="0" stroke="#000000" stroke-width="0.97" display="none"/>
      </g>
      <g>
        <path d="M54.341,111.935 L148.632,111.935" fill="#000000" display="none"/>
        <path d="M54.341,111.935 L148.632,111.935" fill-opacity="0" stroke="#6495ED" stroke-width="0.97" display="none"/>
      </g>
      <g>
        <path d="M148.173,72.861 L159.887,76.21" fill="#000000" display="none"/>
        <path d="M148.173,72.861 L159.887,76.21" fill-opacity="0" stroke="#6495ED" stroke-width="0.97" display="none"/>
      </g>
      <g>
        <path d="M150.446,211.983 L168.695,156.144" fill="#000000" display="none"/>
        <path d="M150.446,211.983 L168.695,156.144" fill-opacity="0" stroke="#6495ED" stroke-width="0.97" display="none"/>
      </g>
      <g>
        <path d="M148.632,111.935 L168.876,166.148" fill="#000000" display="none"/>
        <path d="M148.632,111.935 L168.876,166.148" fill-opacity="0" stroke="#6495ED" stroke-width="0.97" display="none"/>
      </g>
      <path d="M150.446,211.983 C168.692,156.144 168.875,166.15 148.631,111.935" fill-opacity="0" stroke="#000000" stroke-width="0.97" display="none"/>
      <g>
        <path d="M195.788,301.326 L199.849,294.292" fill="#000000" display="none"/>
        <path d="M195.788,301.326 L199.849,294.292" fill-opacity="0" stroke="#6495ED" stroke-width="0.97" display="none"/>
      </g>
      <g>
        <path d="M150.446,211.983 L155.105,205.33" fill="#000000" display="none"/>
        <path d="M150.446,211.983 L155.105,205.33" fill-opacity="0" stroke="#6495ED" stroke-width="0.97" display="none"/>
      </g>
      <g>
        <path d="M210.002,262.746 L210.002,238.38" fill="#000000" display="none"/>
        <path d="M210.002,262.746 L210.002,238.38" fill-opacity="0" stroke="#6495ED" stroke-width="0.97" display="none"/>
      </g>
      <g>
        <path d="M175.036,211.983 L181.518,216.877" fill="#000000" display="none"/>
        <path d="M175.036,211.983 L181.518,216.877" fill-opacity="0" stroke="#6495ED" stroke-width="0.97" display="none"/>
      </g>
      <g>
        <path d="M175.036,211.983 L168.554,207.089" fill="#000000" display="none"/>
        <path d="M175.036,211.983 L168.554,207.089" fill-opacity="0" stroke="#6495ED" stroke-width="0.97" display="none"/>
      </g>
      <g>
        <path d="M210.002,262.746 L210.002,278.991" fill="#000000" display="none"/>
        <path d="M210.002,262.746 L210.002,278.991" fill-opacity="0" stroke="#6495ED" stroke-width="0.97" display="none"/>
      </g>
      <path d="M150.446,211.983 C155.104,205.331 168.554,207.09 175.036,211.983 C181.517,216.877 210.002,238.38 210.002,262.746 C210.002,278.991 199.849,294.293 195.788,301.326" fill-opacity="0" stroke="#000000" stroke-width="0.97" display="none"/>
      <g>
        <path d="M148.632,111.935 L188.478,97.055" fill="#000000" display="none"/>
        <path d="M148.632,111.935 L188.478,97.055" fill-opacity="0" stroke="#000000" stroke-width="0.97" display="none"/>
      </g>
      <g>
        <path d="M146.076,100.408 L188.478,97.055" fill="#000000" display="none"/>
        <path d="M146.076,100.408 L188.478,97.055" fill-opacity="0" stroke="#000000" stroke-width="0.97" display="none"/>
      </g>
      <g>
        <path d="M128.11,211.983 L123.452,218.636" fill="#000000" display="none"/>
        <path d="M128.11,211.983 L123.452,218.636" fill-opacity="0" stroke="#6495ED" stroke-width="0.97" display="none"/>
      </g>
      <g>
        <path d="M82.769,300.311 L86.83,293.277" fill="#000000" display="none"/>
        <path d="M82.769,300.311 L86.83,293.277" fill-opacity="0" stroke="#6495ED" stroke-width="0.97" display="none"/>
      </g>
      <g>
        <path d="M103.582,262.746 L111.213,231.167" fill="#000000" display="none"/>
        <path d="M103.582,262.746 L111.213,231.167" fill-opacity="0" stroke="#6495ED" stroke-width="0.97" display="none"/>
      </g>
      <g>
        <path d="M103.582,262.746 L99.766,278.536" fill="#000000" display="none"/>
        <path d="M103.582,262.746 L99.766,278.536" fill-opacity="0" stroke="#6495ED" stroke-width="0.97" display="none"/>
      </g>
      <path d="M82.769,300.311 C86.83,293.277 99.764,278.536 103.582,262.746 C111.212,231.168 123.452,218.635 128.11,211.983" fill-opacity="0" stroke="#000000" stroke-width="0.97" display="none"/>
      <path d="M148.172,72.859 C159.888,76.21 167.592,56.656 157.74,8.93" fill-opacity="0" stroke="#000000" stroke-width="0.97" display="none"/>
      <path d="M146.076,100.41 C144.826,84.576 144.826,84.576 148.172,72.859" fill-opacity="0" stroke="#000000" stroke-width="0.97" display="none"/>
    </g>
    <text transform="matrix(1, 0, 0, 1, 156.24, 146.885)" display="none">
      <tspan x="-106.988" y="49" font-family="CalistoMT" font-size="144" fill="#000000">My</tspan>
    </text>
  </g>
  <g id="Layer_1_Copy">
    <g id="seam_allowance_-_front">
      <path d="M65.009,12.174 L95.488,6.294 L95.488,6.294 C95.488,6.294 95.488,6.294 95.488,11.17 C95.488,19.098 101.914,25.527 109.845,25.527 C109.845,25.527 109.845,25.527 109.845,25.527 L109.845,25.527 L109.845,60.703 L109.845,60.703 L109.845,67.882 L109.845,67.882 L109.845,105.692 L109.845,105.692 L109.845,135.604 L109.845,135.604 L109.845,193.036 L109.845,193.036 L90.331,193.036 L90.331,193.036 C90.331,193.036 90.331,193.036 93.094,188.248 C95.488,184.103 101.47,175.088 101.47,165.516 C101.47,151.158 84.684,138.488 80.866,135.604 C77.047,132.72 69.122,131.684 66.377,135.604 C56.933,149.088 56.933,149.088 56.933,149.088 L56.933,149.088 C56.933,149.088 56.933,149.088 61.828,134.118 C64.495,125.954 66.503,120.2 67.828,115.661 C68.996,111.666 69.614,108.753 69.561,105.853 C69.51,102.966 68.79,100.115 67.483,96.238 C65.997,91.822 63.783,86.245 60.824,78.324 C59.15,73.839 59.15,73.839 59.15,73.839 L59.15,73.839 L87.113,63.397 L89.164,72.653 L59.407,75.007 L59.407,75.007 C59.407,75.007 59.407,75.007 59.03,70.235 C58.631,65.188 58.462,62.663 58.631,60.467 C58.805,58.173 59.319,56.213 60.435,52.311 C61.75,47.709 61.75,47.709 61.75,47.709 L61.75,47.709 C61.75,47.709 61.75,47.709 66.353,49.023 C66.404,49.037 66.452,49.053 66.5,49.055 C66.535,49.055 66.38,49.074 66.407,49.066 C66.449,49.055 66.249,49.133 66.289,49.112 C66.31,49.101 66.329,49.077 66.348,49.058 C66.623,48.796 66.835,48.418 67.049,47.963 C67.413,47.181 67.703,46.228 67.935,45.106 C69.127,39.352 68.704,30.082 65.986,16.921 C65.009,12.174 65.009,12.174 65.009,12.174 L65.009,12.174 L95.488,6.294" fill="#929292"/>
      <path d="M65.009,12.174 L95.488,6.294 L95.488,6.294 C95.488,6.294 95.488,6.294 95.488,11.17 C95.488,19.098 101.914,25.527 109.845,25.527 C109.845,25.527 109.845,25.527 109.845,25.527 L109.845,25.527 L109.845,60.703 L109.845,60.703 L109.845,67.882 L109.845,67.882 L109.845,105.692 L109.845,105.692 L109.845,135.604 L109.845,135.604 L109.845,193.036 L109.845,193.036 L90.331,193.036 L90.331,193.036 C90.331,193.036 90.331,193.036 93.094,188.248 C95.488,184.103 101.47,175.088 101.47,165.516 C101.47,151.158 84.684,138.488 80.866,135.604 C77.047,132.72 69.122,131.684 66.377,135.604 C56.933,149.088 56.933,149.088 56.933,149.088 L56.933,149.088 C56.933,149.088 56.933,149.088 61.828,134.118 C64.495,125.954 66.503,120.2 67.828,115.661 C68.996,111.666 69.614,108.753 69.561,105.853 C69.51,102.966 68.79,100.115 67.483,96.238 C65.997,91.822 63.783,86.245 60.824,78.324 C59.15,73.839 59.15,73.839 59.15,73.839 L59.15,73.839 L87.113,63.397 L89.164,72.653 L59.407,75.007 L59.407,75.007 C59.407,75.007 59.407,75.007 59.03,70.235 C58.631,65.188 58.462,62.663 58.631,60.467 C58.805,58.173 59.319,56.213 60.435,52.311 C61.75,47.709 61.75,47.709 61.75,47.709 L61.75,47.709 C61.75,47.709 61.75,47.709 66.353,49.023 C66.404,49.037 66.452,49.053 66.5,49.055 C66.535,49.055 66.38,49.074 66.407,49.066 C66.449,49.055 66.249,49.133 66.289,49.112 C66.31,49.101 66.329,49.077 66.348,49.058 C66.623,48.796 66.835,48.418 67.049,47.963 C67.413,47.181 67.703,46.228 67.935,45.106 C69.127,39.352 68.704,30.082 65.986,16.921 C65.009,12.174 65.009,12.174 65.009,12.174 L65.009,12.174 L95.488,6.294" fill-opacity="0" stroke="#383838" stroke-width="1"/>
    </g>
    <path d="M95.643,11.17 L95.643,11.17 C95.643,19.098 102.07,25.527 110.001,25.527 L110.001,60.703 L110.001,67.882 L110.001,105.692 L110.001,135.604 L110.001,188.248 L93.25,188.248 L93.25,188.248 C95.643,184.104 101.625,175.088 101.625,165.516 C101.625,151.158 84.842,138.488 81.021,135.604 C77.203,132.72 69.277,131.684 66.532,135.604 L66.532,135.604 C69.221,127.378 71.245,121.576 72.578,117.003 C73.915,112.429 74.563,109.085 74.504,105.767 C74.445,102.452 73.676,99.164 72.174,94.711 C70.675,90.256 68.444,84.636 65.464,76.651 L88.944,67.882 L63.957,69.858 L63.957,69.858 C63.59,65.193 63.405,62.859 63.558,60.832 C63.713,58.802 64.206,57.078 65.194,53.626 L65.194,53.626 C65.625,53.749 66.048,53.819 66.457,53.838 C66.87,53.854 67.269,53.819 67.654,53.728 C68.043,53.637 68.415,53.49 68.774,53.291 C69.132,53.091 69.475,52.836 69.802,52.526 C70.455,51.907 71.042,51.061 71.542,49.987 C72.04,48.916 72.461,47.615 72.779,46.075 C74.048,39.927 73.733,30.015 70.83,15.955 L95.643,11.17" fill="#FFEE91" id="seam_line_-_front_fill"/>
    <g id="Group_drawing">
      <g>
        <path d="M10,11.266 L10,105.486" fill="#000000"/>
        <path d="M10,11.266 L10,105.486" fill-opacity="0" stroke="#A6A6A6" stroke-width="0.5"/>
      </g>
      <g>
        <path d="M10,105.486 L10,165.119" fill="#000000"/>
        <path d="M10,105.486 L10,165.119" fill-opacity="0" stroke="#A6A6A6" stroke-width="0.5"/>
      </g>
      <g>
        <path d="M10,11.266 L10,16.038" fill="#000000"/>
        <path d="M10,11.266 L10,16.038" fill-opacity="0" stroke="#A6A6A6" stroke-width="0.5"/>
      </g>
      <g>
        <path d="M10,165.119 L10,187.183" fill="#000000"/>
        <path d="M10,165.119 L10,187.183" fill-opacity="0" stroke="#A6A6A6" stroke-width="0.5"/>
      </g>
      <g>
        <path d="M10,187.183 L26.698,187.183" fill="#000000"/>
        <path d="M10,187.183 L26.698,187.183" fill-opacity="0" stroke="#A6A6A6" stroke-width="0.5"/>
      </g>
      <g>
        <path d="M10,165.119 L63.073,165.119" fill="#000000"/>
        <path d="M10,165.119 L63.073,165.119" fill-opacity="0" stroke="#A6A6A6" stroke-width="0.5"/>
      </g>
      <g>
        <path d="M63.073,165.119 L63.073,105.486" fill="#000000"/>
        <path d="M63.073,165.119 L63.073,105.486" fill-opacity="0" stroke="#A6A6A6" stroke-width="0.5"/>
      </g>
      <g>
        <path d="M10,105.486 L63.073,105.486" fill="#000000"/>
        <path d="M10,105.486 L63.073,105.486" fill-opacity="0" stroke="#A6A6A6" stroke-width="0.5"/>
      </g>
      <g>
        <path d="M63.073,165.119 L63.073,105.486" fill="#000000"/>
        <path d="M63.073,165.119 L63.073,105.486" fill-opacity="0" stroke="#A6A6A6" stroke-width="0.5"/>
      </g>
      <g>
        <path d="M10,105.486 L63.073,105.486" fill="#000000"/>
        <path d="M10,105.486 L63.073,105.486" fill-opacity="0" stroke="#A6A6A6" stroke-width="0.5"/>
      </g>
      <g>
        <path d="M63.073,165.119 L43.585,105.486" fill="#000000"/>
        <path d="M63.073,165.119 L43.585,105.486" fill-opacity="0" stroke="#A6A6A6" stroke-width="0.5"/>
      </g>
      <g>
        <path d="M10,165.119 L56.703,165.119" fill="#000000"/>
        <path d="M10,165.119 L56.703,165.119" fill-opacity="0" stroke="#A6A6A6" stroke-width="0.5"/>
      </g>
      <g>
        <path d="M56.703,165.119 L109.776,165.119" fill="#000000"/>
        <path d="M56.703,165.119 L109.776,165.119" fill-opacity="0" stroke="#A6A6A6" stroke-width="0.5"/>
      </g>
      <g>
        <path d="M109.776,165.119 L109.776,11.266" fill="#000000"/>
        <path d="M109.776,165.119 L109.776,11.266" fill-opacity="0" stroke="#A6A6A6" stroke-width="0.5"/>
      </g>
      <g>
        <path d="M10,11.266 L109.776,11.266" fill="#000000"/>
        <path d="M10,11.266 L109.776,11.266" fill-opacity="0" stroke="#A6A6A6" stroke-width="0.5"/>
      </g>
      <g>
        <path d="M109.776,165.119 L109.776,11.266" fill="#000000"/>
        <path d="M109.776,165.119 L109.776,11.266" fill-opacity="0" stroke="#A6A6A6" stroke-width="0.5"/>
      </g>
      <g>
        <path d="M109.776,165.119 L109.776,105.486" fill="#000000"/>
        <path d="M109.776,165.119 L109.776,105.486" fill-opacity="0" stroke="#A6A6A6" stroke-width="0.5"/>
      </g>
      <g>
        <path d="M10,105.486 L109.776,105.486" fill="#000000"/>
        <path d="M10,105.486 L109.776,105.486" fill-opacity="0" stroke="#A6A6A6" stroke-width="0.5"/>
      </g>
      <g>
        <path d="M109.776,165.119 L101.43,165.119" fill="#000000"/>
        <path d="M109.776,165.119 L101.43,165.119" fill-opacity="0" stroke="#A6A6A6" stroke-width="0.5"/>
      </g>
      <g>
        <path d="M109.776,165.119 L109.776,187.777" fill="#000000"/>
        <path d="M109.776,165.119 L109.776,187.777" fill-opacity="0" stroke="#A6A6A6" stroke-width="0.5"/>
      </g>
      <g>
        <path d="M109.776,187.777 L93.081,187.777" fill="#000000"/>
        <path d="M109.776,187.777 L93.081,187.777" fill-opacity="0" stroke="#A6A6A6" stroke-width="0.5"/>
      </g>
      <g>
        <path d="M109.776,105.486 L76.193,105.486" fill="#000000"/>
        <path d="M109.776,105.486 L76.193,105.486" fill-opacity="0" stroke="#A6A6A6" stroke-width="0.5"/>
      </g>
      <g>
        <path d="M56.703,165.119 L76.193,105.486" fill="#000000"/>
        <path d="M56.703,165.119 L76.193,105.486" fill-opacity="0" stroke="#A6A6A6" stroke-width="0.5"/>
      </g>
      <g>
        <path d="M56.703,165.119 L66.449,135.301" fill="#000000"/>
        <path d="M56.703,165.119 L66.449,135.301" fill-opacity="0" stroke="#A6A6A6" stroke-width="0.5"/>
      </g>
      <g>
        <path d="M109.776,11.266 L109.776,135.301" fill="#000000"/>
        <path d="M109.776,11.266 L109.776,135.301" fill-opacity="0" stroke="#A6A6A6" stroke-width="0.5"/>
      </g>
      <g>
        <path d="M66.449,135.301 L109.776,135.301" fill="#000000"/>
        <path d="M66.449,135.301 L109.776,135.301" fill-opacity="0" stroke="#A6A6A6" stroke-width="0.5"/>
      </g>
      <g>
        <path d="M66.449,135.301 L109.776,135.301" fill="#000000"/>
        <path d="M66.449,135.301 L109.776,135.301" fill-opacity="0" stroke="#A6A6A6" stroke-width="0.5"/>
      </g>
      <g>
        <path d="M66.449,135.301 L80.89,135.301" fill="#000000"/>
        <path d="M66.449,135.301 L80.89,135.301" fill-opacity="0" stroke="#A6A6A6" stroke-width="0.5"/>
      </g>
      <g>
        <path d="M10,11.266 L109.776,11.266" fill="#000000"/>
        <path d="M10,11.266 L109.776,11.266" fill-opacity="0" stroke="#A6A6A6" stroke-width="0.5"/>
      </g>
      <g>
        <path d="M62.12,11.266 L62.12,105.486" fill="#000000"/>
        <path d="M62.12,11.266 L62.12,105.486" fill-opacity="0" stroke="#A6A6A6" stroke-width="0.5"/>
      </g>
      <g>
        <path d="M109.776,105.486 L62.12,105.486" fill="#000000"/>
        <path d="M109.776,105.486 L62.12,105.486" fill-opacity="0" stroke="#A6A6A6" stroke-width="0.5"/>
      </g>
      <g>
        <path d="M62.12,11.266 L62.12,67.799" fill="#000000"/>
        <path d="M62.12,11.266 L62.12,67.799" fill-opacity="0" stroke="#A6A6A6" stroke-width="0.5"/>
      </g>
      <g>
        <path d="M109.776,67.799 L62.12,67.799" fill="#000000"/>
        <path d="M109.776,67.799 L62.12,67.799" fill-opacity="0" stroke="#A6A6A6" stroke-width="0.5"/>
      </g>
      <g>
        <path d="M76.193,105.486 L62.12,67.799" fill="#000000"/>
        <path d="M76.193,105.486 L62.12,67.799" fill-opacity="0" stroke="#A6A6A6" stroke-width="0.5"/>
      </g>
      <g>
        <path d="M109.776,67.799 L62.12,67.799" fill="#000000"/>
        <path d="M109.776,67.799 L62.12,67.799" fill-opacity="0" stroke="#A6A6A6" stroke-width="0.5"/>
      </g>
      <g>
        <path d="M62.12,11.266 L62.12,105.486" fill="#000000"/>
        <path d="M62.12,11.266 L62.12,105.486" fill-opacity="0" stroke="#A6A6A6" stroke-width="0.5"/>
      </g>
      <g>
        <path d="M50.502,11.266 L50.502,105.486" fill="#000000"/>
        <path d="M50.502,11.266 L50.502,105.486" fill-opacity="0" stroke="#A6A6A6" stroke-width="0.5"/>
      </g>
      <g>
        <path d="M10,105.486 L50.502,105.486" fill="#000000"/>
        <path d="M10,105.486 L50.502,105.486" fill-opacity="0" stroke="#A6A6A6" stroke-width="0.5"/>
      </g>
      <g>
        <path d="M50.502,11.266 L50.502,105.486" fill="#000000"/>
        <path d="M50.502,11.266 L50.502,105.486" fill-opacity="0" stroke="#A6A6A6" stroke-width="0.5"/>
      </g>
      <g>
        <path d="M50.502,11.266 L50.502,60.641" fill="#000000"/>
        <path d="M50.502,11.266 L50.502,60.641" fill-opacity="0" stroke="#A6A6A6" stroke-width="0.5"/>
      </g>
      <g>
        <path d="M62.12,60.641 L50.502,60.641" fill="#000000"/>
        <path d="M62.12,60.641 L50.502,60.641" fill-opacity="0" stroke="#A6A6A6" stroke-width="0.5"/>
      </g>
      <g>
        <path d="M43.585,105.486 L50.502,60.641" fill="#000000"/>
        <path d="M43.585,105.486 L50.502,60.641" fill-opacity="0" stroke="#A6A6A6" stroke-width="0.5"/>
      </g>
      <g>
        <path d="M109.776,11.266 L109.776,60.641" fill="#000000"/>
        <path d="M109.776,11.266 L109.776,60.641" fill-opacity="0" stroke="#A6A6A6" stroke-width="0.5"/>
      </g>
      <g>
        <path d="M62.12,60.641 L109.776,60.641" fill="#000000"/>
        <path d="M62.12,60.641 L109.776,60.641" fill-opacity="0" stroke="#A6A6A6" stroke-width="0.5"/>
      </g>
      <g>
        <path d="M62.12,60.641 L109.776,60.641" fill="#000000"/>
        <path d="M62.12,60.641 L109.776,60.641" fill-opacity="0" stroke="#A6A6A6" stroke-width="0.5"/>
      </g>
      <g>
        <path d="M10,11.266 L10,60.641" fill="#000000"/>
        <path d="M10,11.266 L10,60.641" fill-opacity="0" stroke="#A6A6A6" stroke-width="0.5"/>
      </g>
      <g>
        <path d="M50.502,60.641 L10,60.641" fill="#000000"/>
        <path d="M50.502,60.641 L10,60.641" fill-opacity="0" stroke="#A6A6A6" stroke-width="0.5"/>
      </g>
      <g>
        <path d="M50.502,60.641 L10,60.641" fill="#000000"/>
        <path d="M50.502,60.641 L10,60.641" fill-opacity="0" stroke="#A6A6A6" stroke-width="0.5"/>
      </g>
      <path d="M95.464,11.266 C95.464,19.171 101.872,25.578 109.776,25.578" fill-opacity="0" stroke="#A6A6A6" stroke-width="0.5"/>
      <path d="M10,16.038 C17.904,16.038 24.312,13.901 24.312,11.266" fill-opacity="0" stroke="#A6A6A6" stroke-width="0.5"/>
      <g>
        <path d="M62.12,11.266 L62.12,16.038" fill="#000000"/>
        <path d="M62.12,11.266 L62.12,16.038" fill-opacity="0" stroke="#A6A6A6" stroke-width="0.5"/>
      </g>
      <g>
        <path d="M10,16.038 L62.12,16.038" fill="#000000"/>
        <path d="M10,16.038 L62.12,16.038" fill-opacity="0" stroke="#A6A6A6" stroke-width="0.5"/>
      </g>
      <g>
        <path d="M10,16.038 L62.12,16.038" fill="#000000"/>
        <path d="M10,16.038 L62.12,16.038" fill-opacity="0" stroke="#A6A6A6" stroke-width="0.5"/>
      </g>
      <g>
        <path d="M24.312,11.266 L49.045,16.038" fill="#000000"/>
        <path d="M24.312,11.266 L49.045,16.038" fill-opacity="0" stroke="#A6A6A6" stroke-width="0.5"/>
      </g>
      <g>
        <path d="M24.312,11.266 L49.045,16.038" fill="#000000"/>
        <path d="M24.312,11.266 L49.045,16.038" fill-opacity="0" stroke="#A6A6A6" stroke-width="0.5"/>
      </g>
      <g>
        <path d="M49.045,16.038 L31.201,108.552" fill="#000000"/>
        <path d="M49.045,16.038 L31.201,108.552" fill-opacity="0" stroke="#A6A6A6" stroke-width="0.5"/>
      </g>
      <g>
        <path d="M109.776,11.266 L109.776,16.038" fill="#000000"/>
        <path d="M109.776,11.266 L109.776,16.038" fill-opacity="0" stroke="#A6A6A6" stroke-width="0.5"/>
      </g>
      <g>
        <path d="M10,16.038 L109.776,16.038" fill="#000000"/>
        <path d="M10,16.038 L109.776,16.038" fill-opacity="0" stroke="#A6A6A6" stroke-width="0.5"/>
      </g>
      <g>
        <path d="M95.464,11.266 L70.734,16.038" fill="#000000"/>
        <path d="M95.464,11.266 L70.734,16.038" fill-opacity="0" stroke="#A6A6A6" stroke-width="0.5"/>
      </g>
      <g>
        <path d="M50.502,60.641 L41.074,59.188" fill="#000000"/>
        <path d="M50.502,60.641 L41.074,59.188" fill-opacity="0" stroke="#A6A6A6" stroke-width="0.5"/>
      </g>
      <path d="M49.045,16.038 C43.309,45.775 41.074,59.188 50.502,60.641" fill-opacity="0" stroke="#A6A6A6" stroke-width="0.5"/>
      <path d="M50.502,60.641 C42.894,109.971 42.611,102.503 53.329,135.301" fill-opacity="0" stroke="#A6A6A6" stroke-width="0.5"/>
      <g>
        <path d="M65.113,53.586 L63.145,60.467" fill="#000000"/>
        <path d="M65.113,53.586 L63.145,60.467" fill-opacity="0" stroke="#A6A6A6" stroke-width="0.5"/>
      </g>
      <g>
        <path d="M63.145,60.467 L63.882,69.767" fill="#000000"/>
        <path d="M63.145,60.467 L63.882,69.767" fill-opacity="0" stroke="#A6A6A6" stroke-width="0.5"/>
      </g>
      <g>
        <path d="M70.734,16.038 L95.464,11.266" fill="#000000"/>
        <path d="M70.734,16.038 L95.464,11.266" fill-opacity="0" stroke="#A6A6A6" stroke-width="0.5"/>
      </g>
      <g>
        <path d="M10,11.266 L10,76.538" fill="#000000"/>
        <path d="M10,11.266 L10,76.538" fill-opacity="0" stroke="#A6A6A6" stroke-width="0.5"/>
      </g>
      <g>
        <path d="M65.381,76.538 L10,76.538" fill="#000000"/>
        <path d="M65.381,76.538 L10,76.538" fill-opacity="0" stroke="#A6A6A6" stroke-width="0.5"/>
      </g>
      <g>
        <path d="M10,76.538 L65.381,76.538" fill="#000000"/>
        <path d="M10,76.538 L65.381,76.538" fill-opacity="0" stroke="#A6A6A6" stroke-width="0.5"/>
      </g>
      <g>
        <path d="M65.113,53.586 L71.992,55.554" fill="#000000"/>
        <path d="M65.113,53.586 L71.992,55.554" fill-opacity="0" stroke="#A6A6A6" stroke-width="0.5"/>
      </g>
      <g>
        <path d="M66.449,135.301 L77.165,102.503" fill="#000000"/>
        <path d="M66.449,135.301 L77.165,102.503" fill-opacity="0" stroke="#A6A6A6" stroke-width="0.5"/>
      </g>
      <g>
        <path d="M65.381,76.538 L77.272,108.381" fill="#000000"/>
        <path d="M65.381,76.538 L77.272,108.381" fill-opacity="0" stroke="#A6A6A6" stroke-width="0.5"/>
      </g>
      <path d="M66.449,135.301 C77.165,102.503 77.272,108.381 65.381,76.538" fill-opacity="0" stroke="#A6A6A6" stroke-width="0.5"/>
      <g>
        <path d="M93.081,187.777 L95.464,183.648" fill="#000000"/>
        <path d="M93.081,187.777 L95.464,183.648" fill-opacity="0" stroke="#A6A6A6" stroke-width="0.5"/>
      </g>
      <g>
        <path d="M66.449,135.301 L69.183,131.395" fill="#000000"/>
        <path d="M66.449,135.301 L69.183,131.395" fill-opacity="0" stroke="#A6A6A6" stroke-width="0.5"/>
      </g>
      <g>
        <path d="M101.43,165.119 L101.43,150.807" fill="#000000"/>
        <path d="M101.43,165.119 L101.43,150.807" fill-opacity="0" stroke="#A6A6A6" stroke-width="0.5"/>
      </g>
      <g>
        <path d="M80.89,135.301 L84.697,138.177" fill="#000000"/>
        <path d="M80.89,135.301 L84.697,138.177" fill-opacity="0" stroke="#A6A6A6" stroke-width="0.5"/>
      </g>
      <g>
        <path d="M80.89,135.301 L77.085,132.428" fill="#000000"/>
        <path d="M80.89,135.301 L77.085,132.428" fill-opacity="0" stroke="#A6A6A6" stroke-width="0.5"/>
      </g>
      <g>
        <path d="M101.43,165.119 L101.43,174.66" fill="#000000"/>
        <path d="M101.43,165.119 L101.43,174.66" fill-opacity="0" stroke="#A6A6A6" stroke-width="0.5"/>
      </g>
      <path d="M66.449,135.301 C69.183,131.395 77.085,132.428 80.89,135.301 C84.697,138.177 101.43,150.807 101.43,165.119 C101.43,174.66 95.464,183.648 93.081,187.777" fill-opacity="0" stroke="#A6A6A6" stroke-width="0.5"/>
      <g>
        <path d="M65.381,76.538 L88.786,67.799" fill="#000000"/>
        <path d="M65.381,76.538 L88.786,67.799" fill-opacity="0" stroke="#A6A6A6" stroke-width="0.5"/>
      </g>
      <g>
        <path d="M63.882,69.767 L88.786,67.799" fill="#000000"/>
        <path d="M63.882,69.767 L88.786,67.799" fill-opacity="0" stroke="#A6A6A6" stroke-width="0.5"/>
      </g>
      <g>
        <path d="M53.329,135.301 L50.593,139.211" fill="#000000"/>
        <path d="M53.329,135.301 L50.593,139.211" fill-opacity="0" stroke="#A6A6A6" stroke-width="0.5"/>
      </g>
      <g>
        <path d="M26.698,187.183 L29.083,183.051" fill="#000000"/>
        <path d="M26.698,187.183 L29.083,183.051" fill-opacity="0" stroke="#A6A6A6" stroke-width="0.5"/>
      </g>
      <g>
        <path d="M38.921,165.119 L43.403,146.569" fill="#000000"/>
        <path d="M38.921,165.119 L43.403,146.569" fill-opacity="0" stroke="#A6A6A6" stroke-width="0.5"/>
      </g>
      <g>
        <path d="M38.921,165.119 L36.68,174.392" fill="#000000"/>
        <path d="M38.921,165.119 L36.68,174.392" fill-opacity="0" stroke="#A6A6A6" stroke-width="0.5"/>
      </g>
      <path d="M26.698,187.183 C29.083,183.051 36.68,174.392 38.921,165.119 C43.403,146.569 50.593,139.208 53.329,135.301" fill-opacity="0" stroke="#A6A6A6" stroke-width="0.5"/>
      <path d="M65.113,53.586 C71.995,55.554 76.52,44.07 70.731,16.038" fill-opacity="0" stroke="#A6A6A6" stroke-width="0.5"/>
      <path d="M63.882,69.769 C63.148,60.467 63.148,60.467 65.113,53.586" fill-opacity="0" stroke="#A6A6A6" stroke-width="0.5"/>
    </g>
    <text transform="matrix(1, 0, 0, 1, 156.24, 146.885)" display="none">
      <tspan x="-106.988" y="49" font-family="CalistoMT" font-size="144" fill="#000000">My</tspan>
    </text>
    <path d="M95.464,11.197 L95.464,11.197 C95.464,19.128 101.89,25.557 109.821,25.557 L109.821,60.733 L109.821,67.911 L109.821,105.722 L109.821,135.633 L109.821,188.278 L93.07,188.278 L93.07,188.278 C95.464,184.133 101.446,175.117 101.446,165.545 C101.446,151.188 84.66,138.517 80.842,135.633 C77.023,132.75 69.098,131.713 66.353,135.633 L66.353,135.633 C69.039,127.408 71.063,121.605 72.399,117.032 C73.735,112.459 74.383,109.114 74.324,105.797 C74.263,102.479 73.494,99.194 71.995,94.741 C70.495,90.285 68.265,84.665 65.282,76.68 L88.762,67.911 L63.777,69.887 L63.777,69.887 C63.408,65.223 63.226,62.888 63.378,60.861 C63.533,58.831 64.026,57.107 65.012,53.653 L65.012,53.653 C65.445,53.779 65.866,53.848 66.278,53.867 C66.69,53.883 67.089,53.848 67.475,53.757 C67.863,53.666 68.235,53.519 68.594,53.321 C68.953,53.12 69.296,52.866 69.62,52.555 C70.273,51.937 70.859,51.09 71.36,50.017 C71.861,48.946 72.279,47.642 72.597,46.105 C73.869,39.957 73.553,30.044 70.651,15.984 L95.464,11.197" fill-opacity="0" stroke="#000000" stroke-width="1" stroke-dasharray="1,1" id="seam_line_-_front_line"/>
  </g>
</svg>
